<svg width="1531" height="586" viewBox="0 0 1531 586" fill="none" xmlns="http://www.w3.org/2000/svg">
<path d="M1530.06 14C1552.4 128.383 720.741 254.977 733.649 366" stroke="url(#paint0_linear_16_226)"/>
<path d="M733.5 24C734.144 94.0049 734.17 268.902 734.249 324.584" stroke="url(#paint1_linear_16_226)"/>
<path d="M1.00503 27C-22.0019 125.401 749.086 239.545 736.344 361" stroke="url(#paint2_linear_16_226)"/>
<ellipse cx="746.994" cy="421" rx="366.015" ry="165" fill="url(#paint3_radial_16_226)"/>
<ellipse cx="730.787" cy="370" rx="121.555" ry="90" fill="url(#paint4_linear_16_226)"/>
<g filter="url(#filter0_d_16_226)">
<path fill-rule="evenodd" clip-rule="evenodd" d="M677.678 330.034C680.715 330.053 683.152 332.531 683.119 335.569L682.419 400.711C682.387 403.748 679.898 406.195 676.86 406.176C673.822 406.157 671.386 403.679 671.419 400.642L672.119 335.5C672.151 332.462 674.64 330.015 677.678 330.034Z" fill="white"/>
<path fill-rule="evenodd" clip-rule="evenodd" d="M786.136 328.102C789.173 328.159 791.551 330.665 791.448 333.701L789.242 398.828C789.139 401.864 786.593 404.279 783.557 404.222C780.52 404.166 778.141 401.659 778.244 398.624L780.451 333.496C780.554 330.461 783.099 328.046 786.136 328.102Z" fill="white"/>
<path d="M674.061 329.128L728.625 359.99L785.89 328" stroke="white" stroke-width="8"/>
</g>
<path d="M731.462 289.5C895.725 289.5 1044.42 304.552 1152.04 328.882C1205.85 341.047 1249.37 355.527 1279.42 371.588C1294.44 379.619 1306.08 388.032 1313.95 396.729C1321.82 405.424 1325.91 414.375 1325.91 423.5C1325.91 432.625 1321.82 441.576 1313.95 450.271C1306.08 458.968 1294.44 467.381 1279.42 475.412C1249.37 491.473 1205.85 505.953 1152.04 518.118C1044.42 542.448 895.725 557.5 731.462 557.5C567.199 557.5 418.501 542.448 310.884 518.118C257.071 505.953 213.557 491.473 183.508 475.412C168.483 467.381 156.849 458.968 148.976 450.271C141.107 441.576 137.018 432.625 137.018 423.5C137.018 414.375 141.107 405.424 148.976 396.729C156.849 388.032 168.483 379.619 183.508 371.588C213.557 355.527 257.071 341.047 310.884 328.882C418.501 304.552 567.199 289.5 731.462 289.5Z" stroke="url(#paint5_linear_16_226)"/>
<path d="M737.54 289.5C879.98 289.5 1008.92 304.552 1102.23 328.878C1148.89 341.042 1186.62 355.518 1212.67 371.572C1238.74 387.644 1252.97 405.205 1252.97 423.5C1252.97 441.795 1238.74 459.356 1212.67 475.428C1186.62 491.482 1148.89 505.958 1102.23 518.122C1008.92 542.448 879.98 557.5 737.54 557.5C595.099 557.5 466.16 542.448 372.846 518.122C326.186 505.958 288.461 491.482 262.414 475.428C236.338 459.356 222.107 441.795 222.107 423.5C222.107 405.205 236.338 387.644 262.414 371.572C288.461 355.518 326.186 341.042 372.846 328.878C466.16 304.552 595.099 289.5 737.54 289.5Z" stroke="url(#paint6_linear_16_226)"/>
<path d="M751.721 289.5C881.292 289.5 998.578 304.551 1083.45 328.875C1125.9 341.038 1160.21 355.511 1183.9 371.561C1207.6 387.622 1220.56 405.183 1220.56 423.5C1220.56 441.817 1207.6 459.378 1183.9 475.439C1160.21 491.489 1125.9 505.962 1083.45 518.125C998.578 542.449 881.292 557.5 751.721 557.5C622.15 557.5 504.865 542.449 419.988 518.125C377.546 505.962 343.236 491.489 319.547 475.439C295.842 459.378 282.884 441.817 282.884 423.5C282.884 405.183 295.842 387.622 319.547 371.561C343.236 355.511 377.546 341.038 419.988 328.875C504.865 304.551 622.15 289.5 751.721 289.5Z" stroke="url(#paint7_linear_16_226)"/>
<path d="M737.54 217.5C794.518 217.5 846.08 232.869 883.382 257.689C920.688 282.513 943.683 316.75 943.683 354.5C943.683 392.25 920.688 426.487 883.382 451.311C846.08 476.131 794.518 491.5 737.54 491.5C680.562 491.5 629 476.131 591.698 451.311C554.392 426.487 531.396 392.25 531.396 354.5C531.396 316.75 554.392 282.513 591.698 257.689C629 232.869 680.562 217.5 737.54 217.5Z" stroke="url(#paint8_linear_16_226)"/>
<path d="M736.864 308.5C791.827 308.5 841.563 317.671 877.54 332.479C895.53 339.884 910.055 348.689 920.075 358.44C930.094 368.19 935.579 378.855 935.579 390C935.579 401.145 930.094 411.81 920.075 421.56C910.055 431.311 895.53 440.116 877.54 447.521C841.563 462.329 791.827 471.5 736.864 471.5C681.902 471.5 632.165 462.329 596.189 447.521C578.199 440.116 563.674 431.311 553.653 421.56C543.635 411.81 538.15 401.145 538.15 390C538.15 378.855 543.635 368.19 553.653 358.44C563.674 348.689 578.199 339.884 596.189 332.479C632.165 317.671 681.902 308.5 736.864 308.5Z" stroke="url(#paint9_linear_16_226)"/>
<path d="M1288.71 377.749C1288.71 376.196 1286.46 374.725 1283.01 373.813C1283.81 370.776 1283.45 368.358 1281.89 367.584C1281.52 367.401 1281.09 367.309 1280.65 367.317V368.382C1280.91 368.382 1281.11 368.426 1281.29 368.507C1282.04 368.88 1282.36 370.297 1282.11 372.122C1282.05 372.571 1281.95 373.044 1281.83 373.526C1280.67 373.285 1279.5 373.112 1278.31 373.006C1277.61 372.166 1276.84 371.368 1276.01 370.617C1277.82 369.17 1279.51 368.378 1280.66 368.378V367.312C1279.14 367.312 1277.15 368.249 1275.13 369.872C1273.12 368.26 1271.13 367.332 1269.61 367.332V368.396C1270.75 368.396 1272.45 369.185 1274.26 370.622C1273.48 371.325 1272.71 372.122 1271.97 373.006C1270.79 373.11 1269.61 373.286 1268.45 373.531C1268.33 373.074 1268.23 372.612 1268.16 372.146C1267.9 370.321 1268.23 368.903 1268.97 368.526C1269.14 368.44 1269.35 368.401 1269.61 368.401V367.337C1269.14 367.337 1268.72 367.423 1268.36 367.603C1266.8 368.378 1266.46 370.789 1267.26 373.818C1263.82 374.736 1261.58 376.201 1261.58 377.749C1261.58 379.301 1263.83 380.772 1267.28 381.683C1266.48 384.722 1266.84 387.139 1268.4 387.912C1268.76 388.094 1269.18 388.18 1269.64 388.18C1271.16 388.18 1273.15 387.244 1275.17 385.62C1277.18 387.234 1279.17 388.16 1280.69 388.16C1281.13 388.168 1281.56 388.076 1281.94 387.893C1283.5 387.12 1283.85 384.708 1283.04 381.679C1286.47 380.767 1288.71 379.296 1288.71 377.749ZM1281.51 374.563C1281.3 375.201 1281.05 375.831 1280.77 376.449C1280.3 375.673 1279.8 374.917 1279.24 374.185C1280.03 374.286 1280.79 374.41 1281.51 374.563H1281.51ZM1278.98 379.65C1278.56 380.274 1278.12 380.883 1277.65 381.474C1275.99 381.601 1274.32 381.602 1272.66 381.479C1271.7 380.305 1270.87 379.062 1270.17 377.763C1270.87 376.462 1271.7 375.214 1272.65 374.034C1274.31 373.907 1275.97 373.905 1277.63 374.028C1278.09 374.596 1278.54 375.203 1278.97 375.844C1279.39 376.469 1279.78 377.103 1280.12 377.744C1279.77 378.392 1279.39 379.028 1278.98 379.65ZM1280.77 379.029C1281.06 379.668 1281.32 380.309 1281.53 380.93C1280.8 381.083 1280.04 381.212 1279.25 381.311C1279.8 380.573 1280.3 379.811 1280.77 379.029ZM1275.16 384.125C1274.64 383.666 1274.13 383.156 1273.62 382.596C1274.12 382.616 1274.63 382.63 1275.14 382.63C1275.66 382.63 1276.17 382.621 1276.68 382.596C1276.18 383.156 1275.67 383.666 1275.16 384.125ZM1271.04 381.311C1270.28 381.216 1269.52 381.09 1268.77 380.934C1268.98 380.318 1269.23 379.683 1269.52 379.048C1269.75 379.429 1269.98 379.812 1270.24 380.194C1270.5 380.576 1270.77 380.949 1271.04 381.311ZM1275.13 371.372C1275.64 371.831 1276.16 372.342 1276.67 372.901C1276.17 372.882 1275.66 372.867 1275.15 372.867C1274.63 372.867 1274.11 372.877 1273.61 372.901C1274.11 372.342 1274.62 371.831 1275.13 371.372ZM1271.04 374.186C1270.49 374.923 1269.98 375.683 1269.52 376.464C1269.23 375.841 1268.97 375.207 1268.76 374.563C1269.48 374.414 1270.24 374.286 1271.04 374.186ZM1266.03 380.165C1264.07 379.445 1262.8 378.498 1262.8 377.749C1262.8 376.999 1264.07 376.048 1266.03 375.332C1266.5 375.155 1267.02 374.997 1267.56 374.85C1267.88 375.785 1268.29 376.76 1268.81 377.758C1268.32 378.698 1267.91 379.665 1267.58 380.652C1267.05 380.512 1266.54 380.349 1266.03 380.165ZM1269.01 386.99C1268.25 386.619 1267.93 385.199 1268.18 383.375C1268.24 382.926 1268.34 382.453 1268.46 381.97C1269.55 382.2 1270.73 382.377 1271.98 382.492C1272.68 383.331 1273.45 384.129 1274.28 384.88C1272.47 386.327 1270.78 387.12 1269.63 387.12C1269.41 387.122 1269.2 387.077 1269.01 386.991V386.99ZM1282.13 383.351C1282.39 385.176 1282.07 386.594 1281.32 386.971C1281.15 387.057 1280.94 387.095 1280.68 387.095C1279.54 387.095 1277.84 386.307 1276.04 384.869C1276.86 384.121 1277.62 383.325 1278.32 382.487C1279.51 382.382 1280.68 382.206 1281.84 381.962C1281.97 382.444 1282.06 382.907 1282.13 383.351ZM1284.26 380.165C1283.78 380.342 1283.26 380.5 1282.72 380.647C1282.39 379.655 1281.97 378.683 1281.48 377.739C1281.99 376.746 1282.4 375.776 1282.71 374.845C1283.23 374.986 1283.75 375.148 1284.26 375.332C1286.22 376.053 1287.49 376.999 1287.49 377.749C1287.48 378.498 1286.21 379.449 1284.26 380.165Z" fill="url(#paint10_linear_16_226)"/>
<path d="M1275.14 379.931C1275.81 379.931 1276.45 379.701 1276.93 379.292C1277.4 378.882 1277.67 378.327 1277.67 377.748C1277.67 377.169 1277.4 376.614 1276.93 376.204C1276.45 375.795 1275.81 375.565 1275.14 375.565C1274.47 375.565 1273.83 375.795 1273.35 376.204C1272.88 376.614 1272.61 377.169 1272.61 377.748C1272.61 378.327 1272.88 378.882 1273.35 379.292C1273.83 379.701 1274.47 379.931 1275.14 379.931Z" fill="url(#paint11_linear_16_226)"/>
<path d="M1193.52 336.991H1179.72C1178.68 336.991 1177.84 337.719 1177.84 338.616V350.527C1177.84 351.424 1178.68 352.152 1179.72 352.152H1193.52C1194.55 352.152 1195.4 351.424 1195.4 350.527V338.616C1195.4 337.719 1194.55 336.991 1193.52 336.991ZM1187.39 348.815C1187.39 350.29 1186.39 350.964 1184.93 350.964C1183.61 350.964 1182.84 350.375 1182.45 349.661L1183.8 348.96C1184.05 349.356 1184.29 349.691 1184.86 349.691C1185.4 349.691 1185.74 349.509 1185.74 348.795V343.952H1187.39V348.815ZM1191.3 350.964C1189.76 350.964 1188.77 350.334 1188.29 349.509L1189.64 348.839C1189.99 349.336 1190.45 349.705 1191.26 349.705C1191.94 349.705 1192.38 349.411 1192.38 349.001C1192.38 348.514 1191.94 348.341 1191.18 348.054L1190.77 347.901C1189.58 347.465 1188.79 346.913 1188.79 345.752C1188.79 344.683 1189.73 343.871 1191.2 343.871C1192.25 343.871 1193.01 344.186 1193.55 345.011L1192.26 345.722C1191.98 345.285 1191.67 345.113 1191.2 345.113C1190.72 345.113 1190.41 345.377 1190.41 345.722C1190.41 346.148 1190.72 346.321 1191.43 346.588L1191.84 346.741C1193.24 347.258 1194.03 347.79 1194.03 348.981C1194.03 350.26 1192.86 350.964 1191.3 350.964Z" fill="url(#paint12_linear_16_226)"/>
<path d="M1334.5 441.948C1334.18 441.948 1333.85 441.869 1333.57 441.72L1330.58 440.115C1330.14 439.886 1330.35 439.807 1330.5 439.763C1331.09 439.574 1331.22 439.535 1331.85 439.205C1331.92 439.17 1332 439.183 1332.07 439.222L1334.36 440.458C1334.45 440.502 1334.56 440.502 1334.64 440.458L1343.57 435.771C1343.66 435.727 1343.71 435.639 1343.71 435.551V426.177C1343.71 426.085 1343.66 426.001 1343.57 425.953L1334.64 421.271C1334.56 421.227 1334.45 421.227 1334.36 421.271L1325.44 425.957C1325.35 426.001 1325.3 426.089 1325.3 426.182V435.551C1325.3 435.639 1325.35 435.727 1325.44 435.767L1327.89 437.05C1329.22 437.653 1330.03 436.945 1330.03 436.228V426.978C1330.03 426.846 1330.15 426.744 1330.29 426.744H1331.42C1331.56 426.744 1331.68 426.846 1331.68 426.978V436.233C1331.68 437.842 1330.72 438.765 1329.04 438.765C1328.52 438.765 1328.12 438.765 1326.98 438.255L1324.64 437.028C1324.06 436.725 1323.7 436.158 1323.7 435.547V426.177C1323.7 425.571 1324.06 424.999 1324.64 424.696L1333.57 420.009C1334.13 419.718 1334.88 419.718 1335.44 420.009L1344.38 424.7C1344.96 425.003 1345.31 425.571 1345.31 426.182V435.551C1345.31 436.158 1344.96 436.725 1344.38 437.033L1335.44 441.72C1335.16 441.869 1334.83 441.948 1334.5 441.948ZM1341.72 432.711C1341.72 430.957 1340.41 430.491 1337.67 430.161C1334.89 429.827 1334.61 429.655 1334.61 429.066C1334.61 428.578 1334.85 427.927 1336.9 427.927C1338.74 427.927 1339.41 428.288 1339.69 429.413C1339.72 429.519 1339.82 429.598 1339.95 429.598H1341.11C1341.18 429.598 1341.25 429.572 1341.3 429.523C1341.34 429.475 1341.37 429.409 1341.36 429.343C1341.18 427.404 1339.77 426.503 1336.9 426.503C1334.35 426.503 1332.84 427.479 1332.84 429.119C1332.84 430.895 1334.35 431.387 1336.79 431.607C1339.72 431.867 1339.95 432.258 1339.95 432.781C1339.95 433.687 1339.14 434.074 1337.26 434.074C1334.9 434.074 1334.38 433.533 1334.2 432.465C1334.19 432.35 1334.08 432.267 1333.95 432.267H1332.79C1332.65 432.267 1332.54 432.372 1332.54 432.5C1332.54 433.867 1333.35 435.498 1337.27 435.498C1340.09 435.494 1341.72 434.478 1341.72 432.711Z" fill="url(#paint13_linear_16_226)"/>
<path fill-rule="evenodd" clip-rule="evenodd" d="M1175.19 507.254C1172.91 507.254 1171.09 508.9 1171.09 510.916C1171.09 512.142 1171.76 513.231 1172.8 513.896C1172.27 514.242 1171.83 514.692 1171.53 515.209C1171.24 515.727 1171.08 516.297 1171.09 516.875C1171.09 518.101 1171.76 519.189 1172.8 519.854C1172.27 520.201 1171.83 520.65 1171.53 521.168C1171.24 521.685 1171.08 522.256 1171.09 522.833C1171.09 524.85 1172.91 526.496 1175.19 526.496C1177.46 526.496 1179.28 524.85 1179.28 522.833V519.737C1180 520.254 1180.91 520.537 1181.84 520.538C1184.11 520.537 1185.94 518.891 1185.94 516.875C1185.95 516.297 1185.79 515.727 1185.49 515.209C1185.2 514.692 1184.76 514.242 1184.23 513.896C1184.76 513.549 1185.2 513.099 1185.49 512.582C1185.79 512.064 1185.95 511.494 1185.94 510.916C1185.94 508.9 1184.11 507.254 1181.84 507.254H1175.19ZM1172.63 510.916C1172.63 509.641 1173.78 508.619 1175.19 508.619H1177.74V513.213H1175.19C1173.78 513.213 1172.63 512.191 1172.63 510.916ZM1181.84 513.212H1179.28V508.618H1181.84C1183.25 508.618 1184.4 509.641 1184.4 510.916C1184.4 512.191 1183.25 513.212 1181.84 513.212ZM1172.63 516.875C1172.63 515.6 1173.78 514.578 1175.19 514.578H1177.74V519.172H1175.19C1173.78 519.172 1172.63 518.15 1172.63 516.875H1172.63ZM1179.28 516.875C1179.28 515.6 1180.44 514.578 1181.84 514.578C1183.25 514.578 1184.4 515.599 1184.4 516.875C1184.4 518.15 1183.25 519.172 1181.84 519.172C1180.44 519.172 1179.29 518.15 1179.29 516.875H1179.28ZM1172.63 522.833C1172.63 521.559 1173.78 520.537 1175.19 520.537H1177.74V522.833C1177.74 524.109 1176.59 525.13 1175.19 525.13C1173.78 525.13 1172.63 524.109 1172.63 522.833Z" fill="url(#paint14_linear_16_226)"/>
<path d="M1267.43 439.615H1255.17C1253.49 439.615 1252.12 440.793 1252.12 442.246V452.437C1252.12 453.89 1253.49 455.068 1255.17 455.068H1267.43C1269.11 455.068 1270.48 453.89 1270.48 452.437V442.246C1270.48 440.793 1269.11 439.615 1267.43 439.615Z" fill="url(#paint15_linear_16_226)"/>
<path d="M1261.77 443.68L1259.48 446.944L1261.93 450.41C1261.95 450.434 1261.95 450.463 1261.94 450.49C1261.94 450.501 1261.93 450.504 1261.92 450.505L1261.91 450.504L1261.89 450.504C1261.88 450.504 1261.87 450.504 1261.86 450.506H1260.09L1260.06 450.506C1259.96 450.503 1259.89 450.492 1259.85 450.431C1259.69 450.156 1259.52 449.882 1259.36 449.607C1259.21 449.363 1259.06 449.12 1258.9 448.879L1258.83 448.773C1258.65 448.487 1258.47 448.2 1258.29 447.912H1258.27C1258.11 448.197 1257.94 448.481 1257.76 448.762C1257.59 449.046 1257.41 449.328 1257.24 449.607C1257.07 449.888 1256.89 450.166 1256.71 450.442C1256.68 450.498 1256.63 450.51 1256.57 450.512L1256.54 450.512H1254.85L1254.84 450.513L1254.82 450.514C1254.81 450.515 1254.8 450.513 1254.8 450.495C1254.79 450.469 1254.8 450.443 1254.81 450.421L1257.19 447.05L1254.88 443.669C1254.85 443.641 1254.85 443.618 1254.86 443.6C1254.87 443.591 1254.88 443.584 1254.9 443.58C1254.91 443.575 1254.92 443.573 1254.94 443.574H1256.67C1256.71 443.572 1256.75 443.577 1256.78 443.59C1256.81 443.604 1256.84 443.624 1256.86 443.648C1257.01 443.932 1257.17 444.215 1257.35 444.499C1257.53 444.78 1257.71 445.06 1257.9 445.339C1258.08 445.613 1258.25 445.893 1258.41 446.179H1258.42C1258.58 445.893 1258.75 445.609 1258.92 445.328C1259.09 445.052 1259.26 444.773 1259.44 444.493C1259.61 444.217 1259.78 443.939 1259.95 443.659C1259.96 443.633 1259.98 443.609 1260 443.59C1260.03 443.576 1260.06 443.571 1260.1 443.574H1261.71C1261.72 443.571 1261.74 443.572 1261.75 443.577C1261.77 443.582 1261.78 443.591 1261.79 443.602C1261.8 443.614 1261.8 443.627 1261.8 443.64C1261.8 443.653 1261.79 443.665 1261.78 443.675L1261.77 443.68L1261.77 443.68ZM1265.39 450.643L1265.31 450.644C1264.74 450.651 1264.18 450.55 1263.66 450.346C1263.18 450.154 1262.78 449.841 1262.51 449.448C1262.24 449.058 1262.1 448.572 1262.09 447.991L1262.09 447.944C1262.09 447.456 1262.23 446.975 1262.51 446.551C1262.79 446.131 1263.2 445.785 1263.69 445.55L1263.73 445.53C1264.26 445.275 1264.91 445.147 1265.66 445.147L1265.7 445.148L1265.73 445.149L1265.78 445.15L1265.82 445.153L1265.9 445.157L1265.99 445.164L1266.06 445.169V443.074C1266.06 443.024 1266.08 443 1266.13 443H1267.68C1267.69 442.998 1267.7 442.999 1267.71 443.002C1267.72 443.005 1267.73 443.009 1267.74 443.016C1267.74 443.022 1267.75 443.029 1267.75 443.038C1267.76 443.046 1267.76 443.055 1267.76 443.063V449.347C1267.76 449.452 1267.76 449.566 1267.77 449.688L1267.79 449.964L1267.8 450.123C1267.81 450.145 1267.8 450.167 1267.79 450.186C1267.77 450.205 1267.75 450.22 1267.73 450.229C1267.33 450.374 1266.91 450.48 1266.49 450.548C1266.13 450.606 1265.76 450.638 1265.39 450.643ZM1266.06 449.326V446.423C1265.99 446.408 1265.92 446.397 1265.85 446.391C1265.77 446.384 1265.69 446.38 1265.6 446.381C1265.3 446.378 1265.01 446.436 1264.74 446.551C1264.48 446.663 1264.26 446.831 1264.09 447.04C1263.93 447.245 1263.85 447.513 1263.84 447.844L1263.84 447.88C1263.83 448.111 1263.88 448.342 1263.97 448.56C1264.04 448.736 1264.16 448.895 1264.31 449.028C1264.46 449.15 1264.64 449.241 1264.83 449.294C1265.04 449.351 1265.25 449.38 1265.47 449.379C1265.58 449.379 1265.69 449.375 1265.79 449.368C1265.86 449.363 1265.94 449.352 1266.02 449.335L1266.06 449.326Z" fill="black"/>
<path d="M1113.85 350.445C1115.3 349.729 1116.74 349.007 1118.18 348.299C1119.56 347.626 1121.18 348.246 1121.49 349.555C1121.67 350.312 1121.28 351.13 1120.48 351.528C1117.89 352.834 1115.29 354.135 1112.68 355.416C1111.87 355.812 1111.04 355.739 1110.3 355.253C1109.55 354.76 1109.32 354.08 1109.49 353.288C1109.69 352.686 1110.15 352.283 1110.78 351.981C1111.81 351.483 1112.83 350.958 1113.85 350.445Z" fill="url(#paint16_linear_16_226)"/>
<path d="M1114.91 349.925C1113.47 349.203 1112.03 348.488 1110.59 347.759C1109.23 347.067 1109.05 345.548 1110.2 344.66C1110.87 344.147 1111.89 344.031 1112.68 344.423C1115.29 345.711 1117.89 347.004 1120.48 348.317C1121.29 348.723 1121.63 349.383 1121.51 350.176C1121.39 350.982 1120.83 351.499 1119.94 351.764C1119.24 351.915 1118.61 351.774 1117.99 351.457C1116.97 350.932 1115.94 350.434 1114.91 349.925Z" fill="url(#paint17_linear_16_226)"/>
<path d="M1101.79 349.414C1100.87 349.868 1099.94 350.32 1099.02 350.775C1098.48 351.04 1097.94 351.315 1097.4 351.577C1096.31 352.104 1095.01 351.795 1094.39 350.867C1093.8 349.981 1094.14 348.833 1095.19 348.302C1097.77 347.005 1100.35 345.717 1102.94 344.443C1103.73 344.052 1104.56 344.101 1105.29 344.568C1106.07 345.061 1106.32 345.755 1106.15 346.568C1106.04 346.765 1105.97 346.995 1105.81 347.15C1105.55 347.403 1105.25 347.644 1104.92 347.821C1103.89 348.37 1102.83 348.886 1101.79 349.414Z" fill="url(#paint18_linear_16_226)"/>
<path d="M1100.73 349.922C1101.65 350.386 1102.56 350.851 1103.48 351.314C1104.02 351.585 1104.56 351.847 1105.09 352.122C1106.17 352.676 1106.51 353.801 1105.89 354.729C1105.29 355.614 1103.97 355.934 1102.91 355.412C1100.33 354.136 1097.74 352.85 1095.17 351.55C1094.38 351.151 1094.02 350.51 1094.12 349.727C1094.23 348.901 1094.79 348.364 1095.7 348.088C1095.95 348.07 1096.21 348.003 1096.45 348.046C1096.83 348.117 1097.22 348.22 1097.57 348.38C1098.63 348.876 1099.68 349.406 1100.73 349.922Z" fill="url(#paint19_linear_16_226)"/>
<path fill-rule="evenodd" clip-rule="evenodd" d="M308.046 409.295C302.824 409.295 298.592 413.211 298.592 418.041C298.592 422.871 302.824 426.788 308.046 426.788C313.267 426.788 317.5 422.871 317.5 418.041C317.5 413.211 313.267 409.295 308.046 409.295ZM308.156 423.156C305.109 423.156 302.641 420.868 302.641 418.041C302.641 415.215 305.109 412.926 308.156 412.926C309.645 412.926 310.89 413.434 311.845 414.259L310.29 415.701V415.698C309.711 415.186 308.976 414.924 308.156 414.924C306.336 414.924 304.857 416.35 304.857 418.038C304.857 419.726 306.336 421.156 308.156 421.156C309.808 421.156 310.931 420.28 311.163 419.077H308.156V417.082H313.344C313.414 417.425 313.451 417.782 313.451 418.156C313.451 421.079 311.342 423.156 308.156 423.156Z" fill="url(#paint20_linear_16_226)"/>
<path d="M178.673 477.976H181.225V478.913H179.74V479.851H181.225V480.788H178.673V477.976ZM181.735 477.976H184.288V478.791H182.803V478.954H184.288V480.829H181.735V479.973H183.22V479.81H181.735V477.976ZM184.798 477.976H187.349V478.791H185.864V478.954H187.349V480.829H184.798V479.973H186.283V479.81H184.798V477.976Z" fill="url(#paint21_linear_16_226)"/>
<path fill-rule="evenodd" clip-rule="evenodd" d="M183.106 498.308L176.332 496.685L174.336 482.077H191.893L189.898 496.683L183.106 498.308ZM178.283 488.69L178.469 490.481H185.665L185.424 492.804L183.109 493.344H183.107L180.795 492.805L180.647 491.377H178.562L178.853 494.19L183.106 495.209L187.365 494.19L187.884 489.17L187.935 488.69L188.31 485.063H177.91L178.099 486.855H186.035L185.846 488.69H178.283Z" fill="url(#paint22_linear_16_226)"/>
<path d="M389.759 316.63H404.616V330.106H389.759V316.63ZM389.083 330.736H405.29V316H389.083V330.736ZM399.698 321.252C399.698 321.202 399.719 321.177 399.779 321.177H400.84C400.894 321.177 400.921 321.195 400.921 321.252V326.221C400.921 326.271 400.908 326.296 400.84 326.296H399.794C399.726 326.296 399.706 326.265 399.706 326.214V321.252H399.699H399.698ZM399.624 319.823C399.624 319.652 399.697 319.489 399.826 319.369C399.955 319.248 400.13 319.18 400.313 319.18C400.496 319.18 400.671 319.248 400.8 319.369C400.929 319.489 401.002 319.652 401.002 319.823C401.009 319.91 400.995 319.997 400.962 320.079C400.929 320.16 400.877 320.234 400.81 320.295C400.743 320.356 400.663 320.403 400.575 320.433C400.487 320.462 400.393 320.473 400.3 320.465C400.208 320.47 400.117 320.457 400.032 320.427C399.946 320.396 399.869 320.349 399.805 320.288C399.741 320.227 399.692 320.154 399.661 320.074C399.63 319.993 399.618 319.908 399.625 319.823H399.624ZM396.585 323.324C396.396 322.623 395.949 321.102 395.782 320.365H395.769C395.627 321.102 395.269 322.348 394.985 323.324H396.585ZM394.708 324.345L394.175 326.234C394.161 326.284 394.141 326.297 394.073 326.297H393.082C393.014 326.297 393.001 326.278 393.014 326.202L394.932 319.941C394.978 319.77 395.001 319.595 394.999 319.418C394.999 319.374 395.02 319.355 395.053 319.355H396.471C396.519 319.355 396.539 319.368 396.552 319.418L398.7 326.213C398.713 326.263 398.7 326.295 398.646 326.295H397.525C397.471 326.295 397.437 326.283 397.424 326.241L396.87 324.346H394.709L394.708 324.345Z" fill="url(#paint23_linear_16_226)"/>
<path fill-rule="evenodd" clip-rule="evenodd" d="M247.269 354.567C247.269 354.236 247.418 353.918 247.684 353.684C247.95 353.45 248.311 353.318 248.687 353.318H262.831C263.017 353.318 263.202 353.35 263.374 353.413C263.547 353.475 263.703 353.567 263.835 353.683C263.967 353.799 264.072 353.937 264.143 354.089C264.215 354.24 264.251 354.403 264.251 354.567V367.014C264.251 367.178 264.215 367.341 264.143 367.492C264.072 367.644 263.968 367.782 263.836 367.898C263.704 368.014 263.547 368.106 263.375 368.169C263.203 368.232 263.018 368.264 262.831 368.264H248.687C248.501 368.264 248.316 368.232 248.144 368.169C247.972 368.106 247.816 368.014 247.684 367.898C247.552 367.782 247.448 367.644 247.376 367.493C247.305 367.341 247.268 367.179 247.269 367.015V354.567ZM253.991 359.017H256.29V360.033C256.622 359.449 257.471 358.923 258.747 358.923C261.193 358.923 261.773 360.087 261.773 362.222V366.177H259.298V362.708C259.298 361.492 258.966 360.806 258.123 360.806C256.953 360.806 256.467 361.546 256.467 362.708V366.177H253.991V359.017ZM249.745 366.084H252.221V358.923H249.745V366.083V366.084ZM252.576 356.587C252.58 356.774 252.543 356.959 252.465 357.133C252.387 357.307 252.27 357.465 252.122 357.598C251.974 357.732 251.796 357.838 251.601 357.91C251.405 357.982 251.196 358.02 250.983 358.02C250.771 358.02 250.561 357.982 250.366 357.91C250.17 357.838 249.993 357.732 249.845 357.598C249.697 357.465 249.58 357.307 249.502 357.133C249.424 356.959 249.387 356.774 249.391 356.587C249.4 356.221 249.572 355.873 249.87 355.616C250.167 355.36 250.567 355.217 250.983 355.217C251.4 355.217 251.799 355.36 252.097 355.616C252.395 355.873 252.566 356.221 252.576 356.587Z" fill="url(#paint24_linear_16_226)"/>
<path d="M326.622 487.43L328.618 489.826L338.724 487.43M316.121 506.089L321.588 501.516L318.299 498.495M325.793 487.43L322.871 489.682L327.786 489.838M314.436 487.431L315.483 489.271L321.268 489.578M317.531 496.971L321.805 490.153L309.397 489.577M318.029 497.402L322.065 501.111L326.517 497.379L327.897 490.425L322.473 490.186L318.029 497.402Z" fill="url(#paint25_linear_16_226)"/>
<defs>
<filter id="filter0_d_16_226" x="657.419" y="311.505" width="148.033" height="109.672" filterUnits="userSpaceOnUse" color-interpolation-filters="sRGB">
<feFlood flood-opacity="0" result="BackgroundImageFix"/>
<feColorMatrix in="SourceAlpha" type="matrix" values="0 0 0 0 0 0 0 0 0 0 0 0 0 0 0 0 0 0 127 0" result="hardAlpha"/>
<feOffset dy="1"/>
<feGaussianBlur stdDeviation="7"/>
<feComposite in2="hardAlpha" operator="out"/>
<feColorMatrix type="matrix" values="0 0 0 0 1 0 0 0 0 1 0 0 0 0 1 0 0 0 0.55 0"/>
<feBlend mode="normal" in2="BackgroundImageFix" result="effect1_dropShadow_16_226"/>
<feBlend mode="normal" in="SourceGraphic" in2="effect1_dropShadow_16_226" result="shape"/>
</filter>
<linearGradient id="paint0_linear_16_226" x1="800.619" y1="1.60845" x2="800.619" y2="286.875" gradientUnits="userSpaceOnUse">
<stop offset="0.898957" stop-color="#3D1768"/>
<stop offset="1" stop-color="#3D1768" stop-opacity="0"/>
</linearGradient>
<linearGradient id="paint1_linear_16_226" x1="704.5" y1="-1.5" x2="712.514" y2="322.347" gradientUnits="userSpaceOnUse">
<stop offset="0.72583" stop-color="#3D1768"/>
<stop offset="1" stop-color="#3D1768" stop-opacity="0"/>
</linearGradient>
<linearGradient id="paint2_linear_16_226" x1="0.500145" y1="56" x2="548.138" y2="361" gradientUnits="userSpaceOnUse">
<stop offset="0.883981" stop-color="#3D1768"/>
<stop offset="1" stop-color="#3D1768" stop-opacity="0"/>
</linearGradient>
<radialGradient id="paint3_radial_16_226" cx="0" cy="0" r="1" gradientUnits="userSpaceOnUse" gradientTransform="translate(746.994 421) rotate(90) scale(165 366.015)">
<stop stop-color="#763CAC"/>
<stop offset="1" stop-color="#320F85" stop-opacity="0"/>
</radialGradient>
<linearGradient id="paint4_linear_16_226" x1="730.787" y1="280" x2="730.787" y2="460" gradientUnits="userSpaceOnUse">
<stop stop-color="#301080" stop-opacity="0.6"/>
<stop offset="1" stop-color="#7840AD" stop-opacity="0.36"/>
</linearGradient>
<linearGradient id="paint5_linear_16_226" x1="731.462" y1="289" x2="731.462" y2="558" gradientUnits="userSpaceOnUse">
<stop stop-opacity="0"/>
<stop offset="0.479167" stop-color="#763CAC"/>
</linearGradient>
<linearGradient id="paint6_linear_16_226" x1="737.54" y1="289" x2="737.54" y2="558" gradientUnits="userSpaceOnUse">
<stop stop-opacity="0"/>
<stop offset="0.479167" stop-color="#763CAC"/>
</linearGradient>
<linearGradient id="paint7_linear_16_226" x1="751.721" y1="289" x2="751.721" y2="558" gradientUnits="userSpaceOnUse">
<stop stop-opacity="0"/>
<stop offset="0.479167" stop-color="#763CAC"/>
</linearGradient>
<linearGradient id="paint8_linear_16_226" x1="737.54" y1="217" x2="737.54" y2="492" gradientUnits="userSpaceOnUse">
<stop offset="0.197917" stop-opacity="0"/>
<stop offset="1" stop-color="#763CAC"/>
</linearGradient>
<linearGradient id="paint9_linear_16_226" x1="736.865" y1="308" x2="736.865" y2="472" gradientUnits="userSpaceOnUse">
<stop offset="0.197917" stop-opacity="0"/>
<stop offset="1" stop-color="#763CAC"/>
</linearGradient>
<linearGradient id="paint10_linear_16_226" x1="1275.15" y1="367.312" x2="1275.15" y2="388.18" gradientUnits="userSpaceOnUse">
<stop stop-color="#693B93" stop-opacity="0.53"/>
<stop offset="1" stop-color="#693B93"/>
</linearGradient>
<linearGradient id="paint11_linear_16_226" x1="1275.14" y1="375.565" x2="1275.14" y2="379.931" gradientUnits="userSpaceOnUse">
<stop stop-color="#693B93" stop-opacity="0.53"/>
<stop offset="1" stop-color="#693B93"/>
</linearGradient>
<linearGradient id="paint12_linear_16_226" x1="1186.62" y1="336.991" x2="1186.62" y2="352.152" gradientUnits="userSpaceOnUse">
<stop stop-color="#693B93" stop-opacity="0.53"/>
<stop offset="1" stop-color="#693B93"/>
</linearGradient>
<linearGradient id="paint13_linear_16_226" x1="1334.51" y1="419.791" x2="1334.51" y2="441.948" gradientUnits="userSpaceOnUse">
<stop stop-color="#693B93" stop-opacity="0.53"/>
<stop offset="1" stop-color="#693B93"/>
</linearGradient>
<linearGradient id="paint14_linear_16_226" x1="1178.51" y1="507.254" x2="1178.51" y2="526.496" gradientUnits="userSpaceOnUse">
<stop stop-color="#693B93" stop-opacity="0.53"/>
<stop offset="1" stop-color="#693B93"/>
</linearGradient>
<linearGradient id="paint15_linear_16_226" x1="1261.3" y1="439.615" x2="1261.3" y2="455.068" gradientUnits="userSpaceOnUse">
<stop stop-color="#693B93" stop-opacity="0.53"/>
<stop offset="1" stop-color="#693B93"/>
</linearGradient>
<linearGradient id="paint16_linear_16_226" x1="1115.48" y1="348.025" x2="1115.48" y2="355.671" gradientUnits="userSpaceOnUse">
<stop stop-color="#693B93" stop-opacity="0.53"/>
<stop offset="1" stop-color="#693B93"/>
</linearGradient>
<linearGradient id="paint17_linear_16_226" x1="1115.49" y1="344.189" x2="1115.49" y2="351.825" gradientUnits="userSpaceOnUse">
<stop stop-color="#693B93" stop-opacity="0.53"/>
<stop offset="1" stop-color="#693B93"/>
</linearGradient>
<linearGradient id="paint18_linear_16_226" x1="1100.15" y1="344.181" x2="1100.15" y2="351.833" gradientUnits="userSpaceOnUse">
<stop stop-color="#693B93" stop-opacity="0.53"/>
<stop offset="1" stop-color="#693B93"/>
</linearGradient>
<linearGradient id="paint19_linear_16_226" x1="1100.15" y1="348.032" x2="1100.15" y2="355.664" gradientUnits="userSpaceOnUse">
<stop stop-color="#693B93" stop-opacity="0.53"/>
<stop offset="1" stop-color="#693B93"/>
</linearGradient>
<linearGradient id="paint20_linear_16_226" x1="308.046" y1="409.295" x2="308.046" y2="426.788" gradientUnits="userSpaceOnUse">
<stop stop-color="#693B93" stop-opacity="0.53"/>
<stop offset="1" stop-color="#693B93"/>
</linearGradient>
<linearGradient id="paint21_linear_16_226" x1="183.011" y1="477.976" x2="183.011" y2="480.829" gradientUnits="userSpaceOnUse">
<stop stop-color="#693B93" stop-opacity="0.53"/>
<stop offset="1" stop-color="#693B93"/>
</linearGradient>
<linearGradient id="paint22_linear_16_226" x1="183.114" y1="482.077" x2="183.114" y2="498.308" gradientUnits="userSpaceOnUse">
<stop stop-color="#693B93" stop-opacity="0.53"/>
<stop offset="1" stop-color="#693B93"/>
</linearGradient>
<linearGradient id="paint23_linear_16_226" x1="397.186" y1="316" x2="397.186" y2="330.736" gradientUnits="userSpaceOnUse">
<stop stop-color="#693B93" stop-opacity="0.53"/>
<stop offset="1" stop-color="#693B93"/>
</linearGradient>
<linearGradient id="paint24_linear_16_226" x1="255.76" y1="353.318" x2="255.76" y2="368.264" gradientUnits="userSpaceOnUse">
<stop stop-color="#693B93" stop-opacity="0.53"/>
<stop offset="1" stop-color="#693B93"/>
</linearGradient>
<linearGradient id="paint25_linear_16_226" x1="324.06" y1="487.43" x2="324.06" y2="506.089" gradientUnits="userSpaceOnUse">
<stop stop-color="#693B93" stop-opacity="0.53"/>
<stop offset="1" stop-color="#693B93"/>
</linearGradient>
</defs>
</svg>
