<svg width="1706" height="586" viewBox="0 0 1706 586" fill="none" xmlns="http://www.w3.org/2000/svg">
<path d="M1705 13.5C1729.5 128.045 817.508 254.819 831.663 366" stroke="url(#paint0_linear_16_226)"/>
<path d="M831.5 24C832.144 94.0049 832.17 268.902 832.249 324.584" stroke="url(#paint1_linear_16_226)"/>
<path d="M1.07009 24C-24.8948 122.401 845.33 236.545 830.949 358" stroke="url(#paint2_linear_16_226)"/>
<ellipse cx="844.994" cy="421" rx="366.015" ry="165" fill="url(#paint3_radial_16_226)"/>
<ellipse cx="828.787" cy="370" rx="121.555" ry="90" fill="url(#paint4_linear_16_226)"/>
<g filter="url(#filter0_d_16_226)">
<path fill-rule="evenodd" clip-rule="evenodd" d="M775.678 330.034C778.716 330.053 781.152 332.531 781.119 335.569L780.42 400.711C780.387 403.748 777.898 406.195 774.86 406.176C771.823 406.157 769.387 403.679 769.419 400.642L770.119 335.5C770.151 332.462 772.64 330.015 775.678 330.034Z" fill="white"/>
<path fill-rule="evenodd" clip-rule="evenodd" d="M884.136 328.102C887.173 328.159 889.551 330.665 889.448 333.701L887.242 398.828C887.139 401.864 884.594 404.279 881.557 404.222C878.52 404.166 876.142 401.659 876.245 398.624L878.451 333.496C878.554 330.461 881.099 328.046 884.136 328.102Z" fill="white"/>
<path d="M772.061 329.128L826.625 359.99L883.89 328" stroke="white" stroke-width="8"/>
</g>
<path d="M829.462 289.5C993.725 289.5 1142.42 304.552 1250.04 328.882C1303.85 341.047 1347.37 355.527 1377.42 371.588C1392.44 379.619 1404.08 388.032 1411.95 396.729C1419.82 405.424 1423.91 414.375 1423.91 423.5C1423.91 432.625 1419.82 441.576 1411.95 450.271C1404.08 458.968 1392.44 467.381 1377.42 475.412C1347.37 491.473 1303.85 505.953 1250.04 518.118C1142.42 542.448 993.725 557.5 829.462 557.5C665.199 557.5 516.502 542.448 408.884 518.118C355.071 505.953 311.557 491.473 281.508 475.412C266.483 467.381 254.849 458.968 246.977 450.271C239.107 441.576 235.019 432.625 235.019 423.5C235.019 414.375 239.107 405.424 246.977 396.729C254.849 388.032 266.483 379.619 281.508 371.588C311.557 355.527 355.071 341.047 408.884 328.882C516.502 304.552 665.199 289.5 829.462 289.5Z" stroke="url(#paint5_linear_16_226)"/>
<path d="M835.54 289.5C977.981 289.5 1106.92 304.552 1200.23 328.878C1246.89 341.042 1284.62 355.518 1310.67 371.572C1336.74 387.644 1350.97 405.205 1350.97 423.5C1350.97 441.795 1336.74 459.356 1310.67 475.428C1284.62 491.482 1246.89 505.958 1200.23 518.122C1106.92 542.448 977.981 557.5 835.54 557.5C693.099 557.5 564.16 542.448 470.846 518.122C424.186 505.958 386.461 491.482 360.414 475.428C334.339 459.356 320.107 441.795 320.107 423.5C320.107 405.205 334.339 387.644 360.414 371.572C386.461 355.518 424.186 341.042 470.846 328.878C564.16 304.552 693.099 289.5 835.54 289.5Z" stroke="url(#paint6_linear_16_226)"/>
<path d="M849.721 289.5C979.292 289.5 1096.58 304.551 1181.45 328.875C1223.9 341.038 1258.21 355.511 1281.9 371.561C1305.6 387.622 1318.56 405.183 1318.56 423.5C1318.56 441.817 1305.6 459.378 1281.9 475.439C1258.21 491.489 1223.9 505.962 1181.45 518.125C1096.58 542.449 979.292 557.5 849.721 557.5C720.151 557.5 602.865 542.449 517.988 518.125C475.546 505.962 441.236 491.489 417.548 475.439C393.842 459.378 380.885 441.817 380.885 423.5C380.885 405.183 393.842 387.622 417.548 371.561C441.236 355.511 475.546 341.038 517.988 328.875C602.865 304.551 720.151 289.5 849.721 289.5Z" stroke="url(#paint7_linear_16_226)"/>
<path d="M835.54 217.5C892.518 217.5 944.08 232.869 981.382 257.689C1018.69 282.513 1041.68 316.75 1041.68 354.5C1041.68 392.25 1018.69 426.487 981.382 451.311C944.08 476.131 892.518 491.5 835.54 491.5C778.562 491.5 727.001 476.131 689.698 451.311C652.393 426.487 629.397 392.25 629.397 354.5C629.397 316.75 652.393 282.513 689.698 257.689C727.001 232.869 778.562 217.5 835.54 217.5Z" stroke="url(#paint8_linear_16_226)"/>
<path d="M834.865 308.5C889.827 308.5 939.563 317.671 975.54 332.479C993.53 339.884 1008.06 348.689 1018.08 358.44C1028.09 368.19 1033.58 378.855 1033.58 390C1033.58 401.145 1028.09 411.81 1018.08 421.56C1008.06 431.311 993.53 440.116 975.54 447.521C939.563 462.329 889.827 471.5 834.865 471.5C779.902 471.5 730.166 462.329 694.189 447.521C676.199 440.116 661.674 431.311 651.654 421.56C641.635 411.81 636.15 401.145 636.15 390C636.15 378.855 641.635 368.19 651.654 358.44C661.674 348.689 676.199 339.884 694.189 332.479C730.166 317.671 779.902 308.5 834.865 308.5Z" stroke="url(#paint9_linear_16_226)"/>
<path d="M1386.71 377.749C1386.71 376.196 1384.46 374.725 1381.01 373.813C1381.81 370.776 1381.45 368.358 1379.89 367.584C1379.52 367.401 1379.09 367.309 1378.65 367.317V368.382C1378.91 368.382 1379.11 368.426 1379.29 368.507C1380.04 368.88 1380.36 370.297 1380.11 372.122C1380.05 372.571 1379.95 373.044 1379.83 373.526C1378.67 373.285 1377.5 373.112 1376.32 373.006C1375.61 372.166 1374.84 371.368 1374.01 370.617C1375.82 369.17 1377.51 368.378 1378.66 368.378V367.312C1377.14 367.312 1375.15 368.249 1373.13 369.872C1371.12 368.26 1369.13 367.332 1367.61 367.332V368.396C1368.75 368.396 1370.45 369.185 1372.26 370.622C1371.48 371.325 1370.71 372.122 1369.97 373.006C1368.79 373.11 1367.61 373.286 1366.45 373.531C1366.33 373.074 1366.23 372.612 1366.16 372.146C1365.9 370.321 1366.23 368.903 1366.97 368.526C1367.14 368.44 1367.35 368.401 1367.61 368.401V367.337C1367.14 367.337 1366.72 367.423 1366.36 367.603C1364.8 368.378 1364.46 370.789 1365.26 373.818C1361.82 374.736 1359.58 376.201 1359.58 377.749C1359.58 379.301 1361.83 380.772 1365.28 381.683C1364.48 384.722 1364.84 387.139 1366.4 387.912C1366.76 388.094 1367.18 388.18 1367.64 388.18C1369.16 388.18 1371.15 387.244 1373.17 385.62C1375.18 387.234 1377.17 388.16 1378.69 388.16C1379.13 388.168 1379.56 388.076 1379.94 387.893C1381.5 387.12 1381.85 384.708 1381.05 381.679C1384.47 380.767 1386.71 379.296 1386.71 377.749ZM1379.51 374.563C1379.3 375.201 1379.05 375.831 1378.77 376.449C1378.3 375.673 1377.8 374.917 1377.24 374.185C1378.03 374.286 1378.79 374.41 1379.51 374.563H1379.51ZM1376.98 379.65C1376.56 380.274 1376.12 380.883 1375.65 381.474C1373.99 381.601 1372.32 381.602 1370.66 381.479C1369.7 380.305 1368.87 379.062 1368.17 377.763C1368.87 376.462 1369.7 375.214 1370.65 374.034C1372.31 373.907 1373.97 373.905 1375.63 374.028C1376.09 374.596 1376.54 375.203 1376.97 375.844C1377.39 376.469 1377.78 377.103 1378.12 377.744C1377.77 378.392 1377.39 379.028 1376.98 379.65V379.65ZM1378.77 379.029C1379.06 379.668 1379.32 380.309 1379.53 380.93C1378.81 381.083 1378.04 381.212 1377.25 381.311C1377.8 380.573 1378.3 379.811 1378.77 379.029V379.029ZM1373.16 384.125C1372.64 383.666 1372.13 383.156 1371.62 382.596C1372.12 382.616 1372.63 382.63 1373.14 382.63C1373.66 382.63 1374.17 382.621 1374.68 382.596C1374.18 383.156 1373.67 383.666 1373.16 384.125ZM1369.04 381.311C1368.28 381.216 1367.52 381.09 1366.77 380.934C1366.98 380.318 1367.23 379.683 1367.52 379.048C1367.75 379.429 1367.98 379.812 1368.25 380.194C1368.51 380.576 1368.77 380.949 1369.04 381.311ZM1373.13 371.372C1373.64 371.831 1374.16 372.342 1374.67 372.901C1374.17 372.882 1373.66 372.867 1373.15 372.867C1372.63 372.867 1372.11 372.877 1371.61 372.901C1372.11 372.342 1372.62 371.831 1373.13 371.372ZM1369.04 374.186C1368.49 374.923 1367.98 375.683 1367.52 376.464C1367.23 375.841 1366.98 375.207 1366.76 374.563C1367.48 374.414 1368.25 374.286 1369.04 374.186ZM1364.03 380.165C1362.07 379.445 1360.8 378.498 1360.8 377.749C1360.8 376.999 1362.07 376.048 1364.03 375.332C1364.5 375.155 1365.02 374.997 1365.56 374.85C1365.88 375.785 1366.29 376.76 1366.81 377.758C1366.32 378.698 1365.91 379.665 1365.58 380.652C1365.05 380.512 1364.54 380.349 1364.03 380.165V380.165ZM1367.01 386.99C1366.25 386.619 1365.93 385.199 1366.18 383.375C1366.24 382.926 1366.34 382.453 1366.46 381.97C1367.55 382.2 1368.73 382.377 1369.98 382.492C1370.68 383.331 1371.45 384.129 1372.28 384.88C1370.47 386.327 1368.78 387.12 1367.63 387.12C1367.41 387.122 1367.2 387.077 1367.01 386.991V386.99ZM1380.13 383.351C1380.39 385.176 1380.07 386.594 1379.32 386.971C1379.15 387.057 1378.94 387.095 1378.68 387.095C1377.54 387.095 1375.84 386.307 1374.04 384.869C1374.86 384.121 1375.62 383.325 1376.32 382.487C1377.51 382.382 1378.68 382.206 1379.84 381.962C1379.97 382.444 1380.06 382.907 1380.13 383.351V383.351ZM1382.26 380.165C1381.78 380.342 1381.26 380.5 1380.72 380.647C1380.39 379.655 1379.97 378.683 1379.48 377.739C1379.99 376.746 1380.4 375.776 1380.71 374.845C1381.23 374.986 1381.75 375.148 1382.26 375.332C1384.22 376.053 1385.49 376.999 1385.49 377.749C1385.48 378.498 1384.21 379.449 1382.26 380.165V380.165Z" fill="url(#paint10_linear_16_226)"/>
<path d="M1373.14 379.931C1373.81 379.931 1374.45 379.701 1374.93 379.292C1375.4 378.882 1375.67 378.327 1375.67 377.748C1375.67 377.169 1375.4 376.614 1374.93 376.204C1374.45 375.795 1373.81 375.565 1373.14 375.565C1372.47 375.565 1371.83 375.795 1371.35 376.204C1370.88 376.614 1370.61 377.169 1370.61 377.748C1370.61 378.327 1370.88 378.882 1371.35 379.292C1371.83 379.701 1372.47 379.931 1373.14 379.931V379.931Z" fill="url(#paint11_linear_16_226)"/>
<path d="M1291.52 336.991H1277.72C1276.68 336.991 1275.84 337.719 1275.84 338.616V350.527C1275.84 351.424 1276.68 352.152 1277.72 352.152H1291.52C1292.55 352.152 1293.4 351.424 1293.4 350.527V338.616C1293.4 337.719 1292.55 336.991 1291.52 336.991ZM1285.39 348.815C1285.39 350.29 1284.39 350.964 1282.93 350.964C1281.61 350.964 1280.84 350.375 1280.45 349.661L1281.8 348.96C1282.05 349.356 1282.29 349.691 1282.86 349.691C1283.4 349.691 1283.74 349.509 1283.74 348.795V343.952H1285.39V348.815V348.815ZM1289.3 350.964C1287.76 350.964 1286.77 350.334 1286.29 349.509L1287.64 348.839C1287.99 349.336 1288.45 349.705 1289.26 349.705C1289.94 349.705 1290.38 349.411 1290.38 349.001C1290.38 348.514 1289.94 348.341 1289.18 348.054L1288.77 347.901C1287.58 347.465 1286.79 346.913 1286.79 345.752C1286.79 344.683 1287.73 343.871 1289.2 343.871C1290.25 343.871 1291.01 344.186 1291.55 345.011L1290.26 345.722C1289.98 345.285 1289.67 345.113 1289.2 345.113C1288.72 345.113 1288.41 345.377 1288.41 345.722C1288.41 346.148 1288.72 346.321 1289.43 346.588L1289.84 346.741C1291.24 347.258 1292.03 347.79 1292.03 348.981C1292.03 350.26 1290.86 350.964 1289.3 350.964V350.964Z" fill="url(#paint12_linear_16_226)"/>
<path d="M1432.5 441.948C1432.18 441.948 1431.85 441.869 1431.57 441.72L1428.58 440.115C1428.14 439.886 1428.36 439.807 1428.5 439.763C1429.1 439.574 1429.22 439.535 1429.85 439.205C1429.92 439.17 1430 439.183 1430.07 439.222L1432.36 440.458C1432.45 440.502 1432.56 440.502 1432.64 440.458L1441.57 435.771C1441.66 435.727 1441.71 435.639 1441.71 435.551V426.177C1441.71 426.085 1441.66 426.001 1441.57 425.953L1432.64 421.271C1432.56 421.227 1432.45 421.227 1432.36 421.271L1423.44 425.957C1423.35 426.001 1423.3 426.089 1423.3 426.182V435.551C1423.3 435.639 1423.35 435.727 1423.44 435.767L1425.89 437.05C1427.22 437.653 1428.03 436.945 1428.03 436.228V426.978C1428.03 426.846 1428.15 426.744 1428.29 426.744H1429.42C1429.56 426.744 1429.69 426.846 1429.69 426.978V436.233C1429.69 437.842 1428.72 438.765 1427.04 438.765C1426.52 438.765 1426.12 438.765 1424.98 438.255L1422.64 437.028C1422.06 436.725 1421.7 436.158 1421.7 435.547V426.177C1421.7 425.571 1422.06 424.999 1422.64 424.696L1431.57 420.009C1432.13 419.718 1432.88 419.718 1433.44 420.009L1442.38 424.7C1442.96 425.003 1443.31 425.571 1443.31 426.182V435.551C1443.31 436.158 1442.96 436.725 1442.38 437.033L1433.44 441.72C1433.16 441.869 1432.83 441.948 1432.5 441.948ZM1439.72 432.711C1439.72 430.957 1438.41 430.491 1435.67 430.161C1432.89 429.827 1432.61 429.655 1432.61 429.066C1432.61 428.578 1432.85 427.927 1434.9 427.927C1436.74 427.927 1437.41 428.288 1437.69 429.413C1437.72 429.519 1437.83 429.598 1437.95 429.598H1439.11C1439.18 429.598 1439.25 429.572 1439.3 429.523C1439.34 429.475 1439.37 429.409 1439.36 429.343C1439.18 427.404 1437.77 426.503 1434.9 426.503C1432.35 426.503 1430.84 427.479 1430.84 429.119C1430.84 430.895 1432.35 431.387 1434.79 431.607C1437.72 431.867 1437.95 432.258 1437.95 432.781C1437.95 433.687 1437.14 434.074 1435.26 434.074C1432.9 434.074 1432.38 433.533 1432.2 432.465C1432.19 432.35 1432.08 432.267 1431.95 432.267H1430.79C1430.65 432.267 1430.54 432.372 1430.54 432.5C1430.54 433.867 1431.35 435.498 1435.27 435.498C1438.09 435.494 1439.72 434.478 1439.72 432.711V432.711Z" fill="url(#paint13_linear_16_226)"/>
<path fill-rule="evenodd" clip-rule="evenodd" d="M1273.19 507.254C1270.91 507.254 1269.09 508.9 1269.09 510.916C1269.09 512.142 1269.76 513.231 1270.8 513.896C1270.27 514.242 1269.83 514.692 1269.53 515.209C1269.24 515.727 1269.08 516.297 1269.09 516.875C1269.09 518.101 1269.76 519.189 1270.8 519.854C1270.27 520.201 1269.83 520.65 1269.53 521.168C1269.24 521.685 1269.08 522.256 1269.09 522.833C1269.09 524.85 1270.91 526.496 1273.19 526.496C1275.46 526.496 1277.28 524.85 1277.28 522.833V519.737C1278 520.254 1278.91 520.537 1279.84 520.538C1282.12 520.537 1283.94 518.891 1283.94 516.875C1283.95 516.297 1283.79 515.727 1283.5 515.209C1283.2 514.692 1282.76 514.242 1282.23 513.896C1282.76 513.549 1283.2 513.099 1283.49 512.582C1283.79 512.064 1283.95 511.494 1283.94 510.916C1283.94 508.9 1282.12 507.254 1279.84 507.254H1273.19V507.254ZM1270.63 510.916C1270.63 509.641 1271.78 508.619 1273.19 508.619H1275.74V513.213H1273.19C1271.78 513.213 1270.63 512.191 1270.63 510.916V510.916ZM1279.84 513.212H1277.28V508.618H1279.84C1281.25 508.618 1282.4 509.641 1282.4 510.916C1282.4 512.191 1281.25 513.212 1279.84 513.212ZM1270.63 516.875C1270.63 515.6 1271.78 514.578 1273.19 514.578H1275.74V519.172H1273.19C1271.78 519.172 1270.63 518.15 1270.63 516.875H1270.63ZM1277.28 516.875C1277.28 515.6 1278.44 514.578 1279.84 514.578C1281.25 514.578 1282.4 515.599 1282.4 516.875C1282.4 518.15 1281.25 519.172 1279.84 519.172C1278.44 519.172 1277.29 518.15 1277.29 516.875H1277.28ZM1270.63 522.833C1270.63 521.559 1271.78 520.537 1273.19 520.537H1275.74V522.833C1275.74 524.109 1274.59 525.13 1273.19 525.13C1271.78 525.13 1270.63 524.109 1270.63 522.833Z" fill="url(#paint14_linear_16_226)"/>
<path d="M1365.43 439.615H1353.17C1351.49 439.615 1350.12 440.793 1350.12 442.246V452.437C1350.12 453.89 1351.49 455.068 1353.17 455.068H1365.43C1367.11 455.068 1368.48 453.89 1368.48 452.437V442.246C1368.48 440.793 1367.11 439.615 1365.43 439.615Z" fill="url(#paint15_linear_16_226)"/>
<path d="M1359.77 443.68L1357.48 446.944L1359.93 450.41C1359.95 450.434 1359.95 450.463 1359.94 450.49C1359.94 450.501 1359.93 450.504 1359.92 450.505L1359.91 450.504L1359.89 450.504C1359.88 450.504 1359.87 450.504 1359.86 450.506H1358.09L1358.06 450.506C1357.96 450.503 1357.89 450.492 1357.85 450.431C1357.69 450.156 1357.52 449.882 1357.36 449.607C1357.21 449.363 1357.06 449.12 1356.9 448.879L1356.84 448.773C1356.65 448.487 1356.47 448.2 1356.29 447.912H1356.27C1356.11 448.197 1355.94 448.481 1355.76 448.762C1355.59 449.046 1355.41 449.328 1355.24 449.607C1355.07 449.888 1354.89 450.166 1354.71 450.442C1354.68 450.498 1354.63 450.51 1354.57 450.512L1354.54 450.512H1352.85L1352.84 450.513L1352.82 450.514C1352.81 450.515 1352.8 450.513 1352.8 450.495C1352.79 450.469 1352.8 450.443 1352.81 450.421L1355.19 447.05L1352.88 443.669C1352.85 443.641 1352.85 443.618 1352.86 443.6C1352.87 443.591 1352.88 443.584 1352.9 443.58C1352.91 443.575 1352.92 443.573 1352.94 443.574H1354.67C1354.71 443.572 1354.75 443.577 1354.78 443.59C1354.81 443.604 1354.84 443.624 1354.86 443.648C1355.01 443.932 1355.17 444.215 1355.35 444.499C1355.53 444.78 1355.71 445.06 1355.9 445.339C1356.08 445.613 1356.25 445.893 1356.41 446.179H1356.42C1356.58 445.893 1356.75 445.609 1356.92 445.328C1357.09 445.052 1357.26 444.773 1357.44 444.493C1357.61 444.217 1357.78 443.939 1357.95 443.659C1357.96 443.633 1357.98 443.609 1358 443.59C1358.03 443.576 1358.06 443.571 1358.1 443.574H1359.71C1359.73 443.571 1359.74 443.572 1359.75 443.577C1359.77 443.582 1359.78 443.591 1359.79 443.602C1359.8 443.614 1359.8 443.627 1359.8 443.64C1359.8 443.653 1359.79 443.665 1359.78 443.675L1359.77 443.68L1359.77 443.68ZM1363.39 450.643L1363.31 450.644C1362.74 450.651 1362.18 450.55 1361.66 450.346C1361.18 450.154 1360.78 449.841 1360.51 449.448C1360.24 449.058 1360.1 448.572 1360.09 447.991L1360.09 447.944C1360.09 447.456 1360.23 446.975 1360.51 446.551C1360.79 446.131 1361.2 445.785 1361.69 445.55L1361.73 445.53C1362.26 445.275 1362.91 445.147 1363.66 445.147L1363.7 445.148L1363.73 445.149L1363.78 445.15L1363.82 445.153L1363.9 445.157L1363.99 445.164L1364.06 445.169V443.074C1364.06 443.024 1364.08 443 1364.13 443H1365.68C1365.69 442.998 1365.7 442.999 1365.71 443.002C1365.72 443.005 1365.73 443.009 1365.74 443.016C1365.74 443.022 1365.75 443.029 1365.75 443.038C1365.76 443.046 1365.76 443.055 1365.76 443.063V449.347C1365.76 449.452 1365.76 449.566 1365.77 449.688L1365.79 449.964L1365.81 450.123C1365.81 450.145 1365.8 450.167 1365.79 450.186C1365.77 450.205 1365.75 450.22 1365.73 450.229C1365.33 450.374 1364.91 450.48 1364.49 450.548C1364.13 450.606 1363.76 450.638 1363.39 450.643V450.643ZM1364.06 449.326V446.423C1363.99 446.408 1363.92 446.397 1363.85 446.391C1363.77 446.384 1363.69 446.38 1363.6 446.381C1363.3 446.378 1363.01 446.436 1362.74 446.551C1362.48 446.663 1362.26 446.831 1362.09 447.04C1361.93 447.245 1361.85 447.513 1361.84 447.844L1361.84 447.88C1361.83 448.111 1361.88 448.342 1361.97 448.56C1362.04 448.736 1362.16 448.895 1362.31 449.028C1362.46 449.15 1362.64 449.241 1362.83 449.294C1363.04 449.351 1363.25 449.38 1363.47 449.379C1363.58 449.379 1363.69 449.375 1363.79 449.368C1363.86 449.363 1363.94 449.352 1364.02 449.335L1364.06 449.326V449.326Z" fill="black"/>
<path d="M1211.85 350.445C1213.3 349.729 1214.74 349.007 1216.18 348.299C1217.56 347.626 1219.18 348.246 1219.49 349.555C1219.67 350.312 1219.28 351.13 1218.48 351.528C1215.89 352.834 1213.29 354.135 1210.68 355.416C1209.87 355.812 1209.04 355.739 1208.3 355.253C1207.55 354.76 1207.32 354.08 1207.49 353.288C1207.69 352.686 1208.15 352.283 1208.78 351.981C1209.81 351.483 1210.83 350.958 1211.85 350.445" fill="url(#paint16_linear_16_226)"/>
<path d="M1212.91 349.925C1211.47 349.203 1210.03 348.488 1208.59 347.759C1207.23 347.067 1207.05 345.548 1208.2 344.66C1208.87 344.147 1209.89 344.031 1210.68 344.423C1213.29 345.711 1215.89 347.004 1218.49 348.317C1219.29 348.723 1219.63 349.383 1219.51 350.176C1219.39 350.982 1218.83 351.499 1217.94 351.764C1217.24 351.915 1216.61 351.774 1215.99 351.457C1214.97 350.932 1213.94 350.434 1212.91 349.925" fill="url(#paint17_linear_16_226)"/>
<path d="M1199.79 349.414C1198.87 349.868 1197.94 350.32 1197.02 350.775C1196.48 351.04 1195.95 351.315 1195.4 351.577C1194.31 352.104 1193.01 351.795 1192.39 350.867C1191.8 349.981 1192.14 348.833 1193.19 348.302C1195.77 347.005 1198.35 345.717 1200.94 344.443C1201.73 344.052 1202.56 344.101 1203.29 344.568C1204.07 345.061 1204.32 345.755 1204.15 346.568C1204.04 346.765 1203.97 346.995 1203.81 347.15C1203.55 347.403 1203.25 347.644 1202.92 347.821C1201.89 348.37 1200.83 348.886 1199.79 349.414" fill="url(#paint18_linear_16_226)"/>
<path d="M1198.73 349.922C1199.65 350.386 1200.56 350.851 1201.48 351.314C1202.02 351.585 1202.56 351.847 1203.09 352.122C1204.17 352.676 1204.51 353.801 1203.89 354.729C1203.29 355.614 1201.97 355.934 1200.91 355.412C1198.33 354.136 1195.74 352.85 1193.17 351.55C1192.38 351.151 1192.02 350.51 1192.12 349.727C1192.23 348.901 1192.79 348.364 1193.7 348.088C1193.95 348.07 1194.21 348.003 1194.45 348.046C1194.83 348.117 1195.22 348.22 1195.57 348.38C1196.63 348.876 1197.68 349.406 1198.73 349.922" fill="url(#paint19_linear_16_226)"/>
<path fill-rule="evenodd" clip-rule="evenodd" d="M406.046 409.295C400.824 409.295 396.592 413.211 396.592 418.041C396.592 422.871 400.824 426.788 406.046 426.788C411.267 426.788 415.5 422.871 415.5 418.041C415.5 413.211 411.267 409.295 406.046 409.295ZM406.156 423.156C403.109 423.156 400.641 420.868 400.641 418.041C400.641 415.215 403.109 412.926 406.156 412.926C407.645 412.926 408.89 413.434 409.845 414.259L408.29 415.701V415.698C407.711 415.186 406.977 414.924 406.156 414.924C404.336 414.924 402.858 416.35 402.858 418.038C402.858 419.726 404.336 421.156 406.156 421.156C407.808 421.156 408.931 420.28 409.163 419.077H406.156V417.082H411.344C411.414 417.425 411.451 417.782 411.451 418.156C411.451 421.079 409.342 423.156 406.156 423.156V423.156Z" fill="url(#paint20_linear_16_226)"/>
<path d="M276.674 477.976H279.225V478.913H277.741V479.851H279.225V480.788H276.674V477.976ZM279.735 477.976H282.288V478.791H280.803V478.954H282.288V480.829H279.735V479.973H281.22V479.81H279.735V477.976ZM282.798 477.976H285.349V478.791H283.864V478.954H285.349V480.829H282.798V479.973H284.283V479.81H282.798V477.976Z" fill="url(#paint21_linear_16_226)"/>
<path fill-rule="evenodd" clip-rule="evenodd" d="M281.106 498.308L274.332 496.685L272.336 482.077H289.894L287.898 496.683L281.106 498.308ZM276.283 488.69L276.47 490.481H283.665L283.425 492.804L281.109 493.344H281.107L278.795 492.805L278.647 491.377H276.562L276.853 494.19L281.106 495.209L285.366 494.19L285.885 489.17L285.935 488.69L286.31 485.063H275.91L276.099 486.855H284.035L283.846 488.69H276.283V488.69Z" fill="url(#paint22_linear_16_226)"/>
<path d="M487.759 316.63H502.616V330.106H487.759V316.63ZM487.083 330.736H503.29V316H487.083V330.736ZM497.699 321.252C497.699 321.202 497.719 321.177 497.78 321.177H498.84C498.894 321.177 498.921 321.195 498.921 321.252V326.221C498.921 326.271 498.908 326.296 498.84 326.296H497.794C497.726 326.296 497.706 326.265 497.706 326.214V321.252H497.699H497.699ZM497.624 319.823C497.624 319.652 497.697 319.489 497.826 319.369C497.955 319.248 498.131 319.18 498.313 319.18C498.496 319.18 498.671 319.248 498.8 319.369C498.929 319.489 499.002 319.652 499.002 319.823C499.009 319.91 498.995 319.997 498.962 320.079C498.929 320.16 498.877 320.234 498.81 320.295C498.743 320.356 498.663 320.403 498.575 320.433C498.487 320.462 498.393 320.473 498.3 320.465C498.209 320.47 498.117 320.457 498.032 320.427C497.946 320.396 497.869 320.349 497.805 320.288C497.741 320.227 497.692 320.154 497.661 320.074C497.63 319.993 497.618 319.908 497.626 319.823H497.624ZM494.586 323.324C494.396 322.623 493.949 321.102 493.782 320.365H493.769C493.627 321.102 493.269 322.348 492.986 323.324H494.586ZM492.708 324.345L492.175 326.234C492.161 326.284 492.141 326.297 492.073 326.297H491.082C491.014 326.297 491.001 326.278 491.014 326.202L492.932 319.941C492.979 319.77 493.001 319.595 493 319.418C493 319.374 493.02 319.355 493.053 319.355H494.472C494.519 319.355 494.539 319.368 494.553 319.418L496.7 326.213C496.713 326.263 496.7 326.295 496.646 326.295H495.525C495.471 326.295 495.437 326.283 495.424 326.241L494.87 324.346H492.709L492.708 324.345Z" fill="url(#paint23_linear_16_226)"/>
<path fill-rule="evenodd" clip-rule="evenodd" d="M345.269 354.567C345.269 354.236 345.418 353.918 345.684 353.684C345.95 353.45 346.311 353.318 346.688 353.318H360.831C361.017 353.318 361.202 353.35 361.374 353.413C361.547 353.475 361.703 353.567 361.835 353.683C361.967 353.799 362.072 353.937 362.143 354.089C362.215 354.24 362.251 354.403 362.251 354.567V367.014C362.251 367.178 362.215 367.341 362.144 367.492C362.072 367.644 361.968 367.782 361.836 367.898C361.704 368.014 361.548 368.106 361.375 368.169C361.203 368.232 361.018 368.264 360.832 368.264H346.688C346.501 368.264 346.317 368.232 346.144 368.169C345.972 368.106 345.816 368.014 345.684 367.898C345.552 367.782 345.448 367.644 345.376 367.493C345.305 367.341 345.269 367.179 345.269 367.015V354.567ZM351.991 359.017H354.29V360.033C354.622 359.449 355.471 358.923 356.747 358.923C359.194 358.923 359.773 360.087 359.773 362.222V366.177H357.298V362.708C357.298 361.492 356.966 360.806 356.123 360.806C354.953 360.806 354.467 361.546 354.467 362.708V366.177H351.991V359.017ZM347.745 366.084H350.221V358.923H347.745V366.083V366.084ZM350.576 356.587C350.58 356.774 350.543 356.959 350.465 357.133C350.387 357.307 350.27 357.465 350.122 357.598C349.974 357.732 349.797 357.838 349.601 357.91C349.406 357.982 349.196 358.02 348.984 358.02C348.772 358.02 348.562 357.982 348.366 357.91C348.171 357.838 347.994 357.732 347.845 357.598C347.697 357.465 347.58 357.307 347.503 357.133C347.425 356.959 347.387 356.774 347.392 356.587C347.401 356.221 347.572 355.873 347.87 355.616C348.168 355.36 348.567 355.217 348.984 355.217C349.4 355.217 349.8 355.36 350.097 355.616C350.395 355.873 350.567 356.221 350.576 356.587V356.587Z" fill="url(#paint24_linear_16_226)"/>
<path d="M424.622 487.43L426.619 489.826L436.724 487.43M414.121 506.089L419.588 501.516L416.299 498.495M423.793 487.43L420.872 489.682L425.786 489.838M412.436 487.431L413.483 489.271L419.268 489.578M415.531 496.971L419.805 490.153L407.397 489.577M416.029 497.402L420.065 501.111L424.517 497.379L425.898 490.425L420.473 490.186L416.029 497.402Z" fill="url(#paint25_linear_16_226)"/>
<defs>
<filter id="filter0_d_16_226" x="755.419" y="311.505" width="148.033" height="109.672" filterUnits="userSpaceOnUse" color-interpolation-filters="sRGB">
<feFlood flood-opacity="0" result="BackgroundImageFix"/>
<feColorMatrix in="SourceAlpha" type="matrix" values="0 0 0 0 0 0 0 0 0 0 0 0 0 0 0 0 0 0 127 0" result="hardAlpha"/>
<feOffset dy="1"/>
<feGaussianBlur stdDeviation="7"/>
<feComposite in2="hardAlpha" operator="out"/>
<feColorMatrix type="matrix" values="0 0 0 0 1 0 0 0 0 1 0 0 0 0 1 0 0 0 0.55 0"/>
<feBlend mode="normal" in2="BackgroundImageFix" result="effect1_dropShadow_16_226"/>
<feBlend mode="normal" in="SourceGraphic" in2="effect1_dropShadow_16_226" result="shape"/>
</filter>
<linearGradient id="paint0_linear_16_226" x1="905.102" y1="1.09085" x2="905.102" y2="286.763" gradientUnits="userSpaceOnUse">
<stop stop-color="#3D1768"/>
<stop offset="1" stop-color="#3D1768" stop-opacity="0"/>
</linearGradient>
<linearGradient id="paint1_linear_16_226" x1="815.361" y1="42.7761" x2="811.234" y2="322.151" gradientUnits="userSpaceOnUse">
<stop stop-color="#3D1768"/>
<stop offset="1" stop-color="#3D1768" stop-opacity="0"/>
</linearGradient>
<linearGradient id="paint2_linear_16_226" x1="723.597" y1="48.1784" x2="723.597" y2="358" gradientUnits="userSpaceOnUse">
<stop stop-color="#3D1768"/>
<stop offset="1" stop-color="#3D1768" stop-opacity="0"/>
</linearGradient>
<radialGradient id="paint3_radial_16_226" cx="0" cy="0" r="1" gradientUnits="userSpaceOnUse" gradientTransform="translate(844.994 421) rotate(90) scale(165 366.015)">
<stop stop-color="#763CAC"/>
<stop offset="1" stop-color="#320F85" stop-opacity="0"/>
</radialGradient>
<linearGradient id="paint4_linear_16_226" x1="828.787" y1="280" x2="828.787" y2="460" gradientUnits="userSpaceOnUse">
<stop stop-color="#301080" stop-opacity="0.6"/>
<stop offset="1" stop-color="#7840AD" stop-opacity="0.36"/>
</linearGradient>
<linearGradient id="paint5_linear_16_226" x1="829.462" y1="289" x2="829.462" y2="558" gradientUnits="userSpaceOnUse">
<stop stop-opacity="0"/>
<stop offset="0.479167" stop-color="#763CAC"/>
</linearGradient>
<linearGradient id="paint6_linear_16_226" x1="835.54" y1="289" x2="835.54" y2="558" gradientUnits="userSpaceOnUse">
<stop stop-opacity="0"/>
<stop offset="0.479167" stop-color="#763CAC"/>
</linearGradient>
<linearGradient id="paint7_linear_16_226" x1="849.721" y1="289" x2="849.721" y2="558" gradientUnits="userSpaceOnUse">
<stop stop-opacity="0"/>
<stop offset="0.479167" stop-color="#763CAC"/>
</linearGradient>
<linearGradient id="paint8_linear_16_226" x1="835.54" y1="217" x2="835.54" y2="492" gradientUnits="userSpaceOnUse">
<stop offset="0.197917" stop-opacity="0"/>
<stop offset="1" stop-color="#763CAC"/>
</linearGradient>
<linearGradient id="paint9_linear_16_226" x1="834.865" y1="308" x2="834.865" y2="472" gradientUnits="userSpaceOnUse">
<stop offset="0.197917" stop-opacity="0"/>
<stop offset="1" stop-color="#763CAC"/>
</linearGradient>
<linearGradient id="paint10_linear_16_226" x1="1373.15" y1="367.312" x2="1373.15" y2="388.18" gradientUnits="userSpaceOnUse">
<stop stop-color="#693B93" stop-opacity="0.53"/>
<stop offset="1" stop-color="#693B93"/>
</linearGradient>
<linearGradient id="paint11_linear_16_226" x1="1373.14" y1="375.565" x2="1373.14" y2="379.931" gradientUnits="userSpaceOnUse">
<stop stop-color="#693B93" stop-opacity="0.53"/>
<stop offset="1" stop-color="#693B93"/>
</linearGradient>
<linearGradient id="paint12_linear_16_226" x1="1284.62" y1="336.991" x2="1284.62" y2="352.152" gradientUnits="userSpaceOnUse">
<stop stop-color="#693B93" stop-opacity="0.53"/>
<stop offset="1" stop-color="#693B93"/>
</linearGradient>
<linearGradient id="paint13_linear_16_226" x1="1432.51" y1="419.791" x2="1432.51" y2="441.948" gradientUnits="userSpaceOnUse">
<stop stop-color="#693B93" stop-opacity="0.53"/>
<stop offset="1" stop-color="#693B93"/>
</linearGradient>
<linearGradient id="paint14_linear_16_226" x1="1276.51" y1="507.254" x2="1276.51" y2="526.496" gradientUnits="userSpaceOnUse">
<stop stop-color="#693B93" stop-opacity="0.53"/>
<stop offset="1" stop-color="#693B93"/>
</linearGradient>
<linearGradient id="paint15_linear_16_226" x1="1359.3" y1="439.615" x2="1359.3" y2="455.068" gradientUnits="userSpaceOnUse">
<stop stop-color="#693B93" stop-opacity="0.53"/>
<stop offset="1" stop-color="#693B93"/>
</linearGradient>
<linearGradient id="paint16_linear_16_226" x1="1213.48" y1="348.025" x2="1213.48" y2="355.671" gradientUnits="userSpaceOnUse">
<stop stop-color="#693B93" stop-opacity="0.53"/>
<stop offset="1" stop-color="#693B93"/>
</linearGradient>
<linearGradient id="paint17_linear_16_226" x1="1213.49" y1="344.189" x2="1213.49" y2="351.825" gradientUnits="userSpaceOnUse">
<stop stop-color="#693B93" stop-opacity="0.53"/>
<stop offset="1" stop-color="#693B93"/>
</linearGradient>
<linearGradient id="paint18_linear_16_226" x1="1198.15" y1="344.181" x2="1198.15" y2="351.833" gradientUnits="userSpaceOnUse">
<stop stop-color="#693B93" stop-opacity="0.53"/>
<stop offset="1" stop-color="#693B93"/>
</linearGradient>
<linearGradient id="paint19_linear_16_226" x1="1198.15" y1="348.032" x2="1198.15" y2="355.664" gradientUnits="userSpaceOnUse">
<stop stop-color="#693B93" stop-opacity="0.53"/>
<stop offset="1" stop-color="#693B93"/>
</linearGradient>
<linearGradient id="paint20_linear_16_226" x1="406.046" y1="409.295" x2="406.046" y2="426.788" gradientUnits="userSpaceOnUse">
<stop stop-color="#693B93" stop-opacity="0.53"/>
<stop offset="1" stop-color="#693B93"/>
</linearGradient>
<linearGradient id="paint21_linear_16_226" x1="281.011" y1="477.976" x2="281.011" y2="480.829" gradientUnits="userSpaceOnUse">
<stop stop-color="#693B93" stop-opacity="0.53"/>
<stop offset="1" stop-color="#693B93"/>
</linearGradient>
<linearGradient id="paint22_linear_16_226" x1="281.115" y1="482.077" x2="281.115" y2="498.308" gradientUnits="userSpaceOnUse">
<stop stop-color="#693B93" stop-opacity="0.53"/>
<stop offset="1" stop-color="#693B93"/>
</linearGradient>
<linearGradient id="paint23_linear_16_226" x1="495.186" y1="316" x2="495.186" y2="330.736" gradientUnits="userSpaceOnUse">
<stop stop-color="#693B93" stop-opacity="0.53"/>
<stop offset="1" stop-color="#693B93"/>
</linearGradient>
<linearGradient id="paint24_linear_16_226" x1="353.76" y1="353.318" x2="353.76" y2="368.264" gradientUnits="userSpaceOnUse">
<stop stop-color="#693B93" stop-opacity="0.53"/>
<stop offset="1" stop-color="#693B93"/>
</linearGradient>
<linearGradient id="paint25_linear_16_226" x1="422.061" y1="487.43" x2="422.061" y2="506.089" gradientUnits="userSpaceOnUse">
<stop stop-color="#693B93" stop-opacity="0.53"/>
<stop offset="1" stop-color="#693B93"/>
</linearGradient>
</defs>
</svg>
